<mxfile host="app.diagrams.net" modified="2022-10-03T09:42:54.059Z" agent="5.0 (Macintosh; Intel Mac OS X 10_15_7) AppleWebKit/537.36 (KHTML, like Gecko) Chrome/106.0.0.0 Safari/537.36" etag="EYGcuDrqxRkUMH5Binl2" version="20.4.0" type="github">
  <diagram id="8Fomc0AZO4FN7XBAN6qD" name="Page-1">
    <mxGraphModel dx="946" dy="650" grid="1" gridSize="10" guides="1" tooltips="1" connect="1" arrows="1" fold="1" page="1" pageScale="1" pageWidth="827" pageHeight="1169" math="0" shadow="0">
      <root>
        <mxCell id="0" />
        <mxCell id="1" parent="0" />
        <mxCell id="Z2G2KV7_FwyXqnljN_IR-2" value="Page Login" style="swimlane;" parent="1" vertex="1">
          <mxGeometry x="80" y="60" width="210" height="230" as="geometry" />
        </mxCell>
        <mxCell id="Z2G2KV7_FwyXqnljN_IR-4" value="qzdkjqzoÃ dqzd&lt;br&gt;qzd&lt;br&gt;qz&lt;br&gt;dqz&lt;br&gt;d&lt;br&gt;qz" style="whiteSpace=wrap;html=1;aspect=fixed;" parent="Z2G2KV7_FwyXqnljN_IR-2" vertex="1">
          <mxGeometry y="20" width="210" height="210" as="geometry" />
        </mxCell>
        <mxCell id="OVV_W2A49RVvFfewSADl-1" value="Bonjour" style="whiteSpace=wrap;html=1;aspect=fixed;" vertex="1" parent="1">
          <mxGeometry x="370" y="80" width="210" height="210" as="geometry" />
        </mxCell>
        <mxCell id="OVV_W2A49RVvFfewSADl-2" value="" style="edgeStyle=orthogonalEdgeStyle;rounded=0;orthogonalLoop=1;jettySize=auto;html=1;" edge="1" parent="1" source="Z2G2KV7_FwyXqnljN_IR-4" target="OVV_W2A49RVvFfewSADl-1">
          <mxGeometry relative="1" as="geometry" />
        </mxCell>
      </root>
    </mxGraphModel>
  </diagram>
</mxfile>
